<?xml version="1.0" encoding="UTF-8"?>
<svg id="_圖層_2" data-name="圖層_2" xmlns="http://www.w3.org/2000/svg" viewBox="0 0 257.57 244.14">
  <defs>
    <style>
      .cls-1 {
        fill: #2a2b2b;
      }

      .cls-2 {
        fill: #fff;
      }

      .cls-3 {
        fill: none;
        stroke: #2a2b2b;
        stroke-miterlimit: 10;
        stroke-width: 3px;
      }
    </style>
  </defs>
  <g id="_圖層_1-2" data-name="圖層_1">
    <g>
      <g>
        <g>
          <path class="cls-1" d="M36.8,1.5h183.97c5.43,0,9.84,4.41,9.84,9.84v107.61c0,5.43-4.41,9.84-9.84,9.84H36.8c-5.43,0-9.84-4.41-9.84-9.84V11.34c0-5.43,4.41-9.84,9.84-9.84Z"/>
          <path class="cls-2" d="M220.77,3c4.6,0,8.34,3.74,8.34,8.34v107.61c0,4.6-3.74,8.34-8.34,8.34H36.8c-4.6,0-8.34-3.74-8.34-8.34V11.34c0-4.6,3.74-8.34,8.34-8.34h183.97M220.77,0H36.8c-6.26,0-11.34,5.08-11.34,11.34v107.61c0,6.26,5.08,11.34,11.34,11.34h183.97c6.26,0,11.34-5.08,11.34-11.34V11.34c0-6.26-5.08-11.34-11.34-11.34h0Z"/>
        </g>
        <g>
          <path class="cls-1" d="M36.8,11.48h183.97c3.5,0,6.34,2.84,6.34,6.34v107.61c0,3.5-2.84,6.34-6.34,6.34H36.8c-3.5,0-6.34-2.84-6.34-6.34V17.81c0-3.5,2.84-6.34,6.34-6.34Z"/>
          <path class="cls-2" d="M220.77,16.48c.74,0,1.34.6,1.34,1.34v107.61c0,.74-.6,1.34-1.34,1.34H36.8c-.74,0-1.34-.6-1.34-1.34V17.81c0-.74.6-1.34,1.34-1.34h183.97M220.77,6.48H36.8c-6.26,0-11.34,5.08-11.34,11.34v107.61c0,6.26,5.08,11.34,11.34,11.34h183.97c6.26,0,11.34-5.08,11.34-11.34V17.81c0-6.26-5.08-11.34-11.34-11.34h0Z"/>
        </g>
        <g>
          <path class="cls-2" d="M10.93,239.14c-3.08,0-5.17-.94-5.8-1.81-.11-.15-.18-.25-.07-.61l23.31-73.43c.54-.72,3.46-2.38,7.7-2.38h185.45c4.24,0,7.15,1.66,7.69,2.38l23.31,73.43c.11.36.05.45-.07.6-.64.87-2.72,1.81-5.8,1.81H10.93Z"/>
          <path class="cls-2" d="M221.51,165.91c1.47,0,2.7.31,3.47.6l21.47,67.63H11.13l21.47-67.63c.77-.29,2-.6,3.47-.6h185.45M221.51,155.91H36.06c-5.85,0-11.41,2.55-12.42,5.75L.29,235.21c-1.55,4.88,3.2,8.92,10.64,8.92h235.72c7.44,0,12.19-4.04,10.64-8.92l-23.35-73.56c-1.02-3.2-6.57-5.75-12.42-5.75h0Z"/>
        </g>
        <g>
          <path class="cls-2" d="M10.93,237.27c-3.08,0-5.17-.94-5.8-1.81-.11-.15-.18-.25-.07-.61l23.31-73.43c.54-.72,3.46-2.38,7.7-2.38h185.45c4.24,0,7.15,1.66,7.69,2.38l23.31,73.43c.11.36.05.45-.07.6-.64.87-2.72,1.81-5.8,1.81H10.93Z"/>
          <path class="cls-1" d="M221.51,164.04c1.47,0,2.7.31,3.47.6l21.47,67.63H11.13l21.47-67.63c.77-.29,2-.6,3.47-.6h185.45M221.51,154.04H36.06c-5.85,0-11.41,2.55-12.42,5.75L.29,233.35c-1.55,4.88,3.2,8.92,10.64,8.92h235.72c7.44,0,12.19-4.04,10.64-8.92l-23.35-73.56c-1.02-3.2-6.57-5.75-12.42-5.75h0Z"/>
        </g>
        <g>
          <path class="cls-2" d="M10.93,228.86c-3.08,0-5.17-.94-5.8-1.81-.11-.15-.18-.25-.07-.61l23.31-73.43c.54-.72,3.46-2.38,7.7-2.38h185.45c4.24,0,7.15,1.66,7.69,2.38l23.31,73.43c.11.36.05.45-.07.6-.64.87-2.72,1.81-5.8,1.81H10.93Z"/>
          <path class="cls-2" d="M221.51,155.63c1.47,0,2.7.31,3.47.6l21.47,67.63H11.13l21.47-67.63c.77-.29,2-.6,3.47-.6h185.45M221.51,145.63H36.06c-5.85,0-11.41,2.55-12.42,5.75L.29,224.93c-1.55,4.88,3.2,8.92,10.64,8.92h235.72c7.44,0,12.19-4.04,10.64-8.92l-23.35-73.56c-1.02-3.2-6.57-5.75-12.42-5.75h0Z"/>
        </g>
      </g>
      <g>
        <g>
          <line class="cls-3" x1="40.78" y1="157.44" x2="216.79" y2="157.44"/>
          <line class="cls-3" x1="50.03" y1="183.59" x2="55.62" y2="157.44"/>
          <line class="cls-3" x1="65.35" y1="198.22" x2="72.1" y2="157.44"/>
          <line class="cls-3" x1="83.79" y1="198.22" x2="88.58" y2="157.44"/>
          <line class="cls-3" x1="102.23" y1="198.22" x2="105.06" y2="157.44"/>
          <line class="cls-3" x1="120.68" y1="198.22" x2="121.54" y2="157.44"/>
          <line class="cls-3" x1="139.12" y1="198.22" x2="138.02" y2="157.44"/>
          <line class="cls-3" x1="157.56" y1="198.22" x2="154.5" y2="157.44"/>
          <line class="cls-3" x1="176" y1="198.22" x2="170.98" y2="157.44"/>
          <line class="cls-3" x1="194.45" y1="198.22" x2="187.46" y2="157.44"/>
          <line class="cls-3" x1="209.77" y1="184.03" x2="206.61" y2="169.63"/>
          <line class="cls-3" x1="37.65" y1="169.63" x2="219.93" y2="169.63"/>
          <line class="cls-3" x1="34.28" y1="182.71" x2="223.29" y2="182.71"/>
          <line class="cls-3" x1="30.66" y1="196.8" x2="226.91" y2="196.8"/>
        </g>
        <polygon class="cls-1" points="163.47 227.94 94.1 227.94 96.38 200.77 161.19 200.77 163.47 227.94"/>
      </g>
      <circle class="cls-1" cx="128.79" cy="11.47" r="3.28"/>
    </g>
  </g>
</svg>